<svg width="155" height="145" viewBox="0 0 155 145" fill="none" xmlns="http://www.w3.org/2000/svg">
<rect y="60" width="10" height="10" rx="5" fill="black"/>
<rect x="30" y="60" width="10" height="10" rx="5" fill="black"/>
<path d="M45 65C45 62.2386 47.2386 60 50 60V60C52.7614 60 55 62.2386 55 65V65C55 67.7614 52.7614 70 50 70V70C47.2386 70 45 67.7614 45 65V65Z" fill="black"/>
<path d="M60 65C60 62.2386 62.2386 60 65 60C67.7614 60 70 62.2386 70 65C70 67.7614 67.7614 70 65 70C62.2386 70 60 67.7614 60 65Z" fill="black"/>
<path d="M77 65C77 62.2386 79.2386 60 82 60C84.7614 60 87 62.2386 87 65C87 67.7615 84.7614 70 82 70C79.2386 70 77 67.7615 77 65Z" fill="black"/>
<path d="M93.5 65C93.5 62.2386 95.7386 60 98.5 60C101.261 60 103.5 62.2386 103.5 65C103.5 67.7615 101.261 70 98.5 70C95.7386 70 93.5 67.7615 93.5 65Z" fill="black"/>
<path d="M111.5 65C111.5 62.2386 113.739 60 116.5 60C119.261 60 121.5 62.2386 121.5 65C121.5 67.7614 119.261 70 116.5 70C113.739 70 111.5 67.7614 111.5 65Z" fill="black"/>
<path d="M129.5 65C129.5 62.2386 131.739 60 134.5 60C137.261 60 139.5 62.2386 139.5 65C139.5 67.7614 137.261 70 134.5 70C131.739 70 129.5 67.7614 129.5 65Z" fill="black"/>
<path d="M145 65C145 62.2386 147.239 60 150 60C152.761 60 155 62.2386 155 65C155 67.7614 152.761 70 150 70C147.239 70 145 67.7614 145 65Z" fill="black"/>
<rect x="15" y="60" width="10" height="10" rx="5" fill="black"/>
<rect width="10" height="10" rx="5" fill="black"/>
<rect x="30" width="10" height="10" rx="5" fill="black"/>
<path d="M45 5C45 2.23858 47.2386 0 50 0V0C52.7614 0 55 2.23858 55 5V5C55 7.76142 52.7614 10 50 10V10C47.2386 10 45 7.76142 45 5V5Z" fill="black"/>
<path d="M60 5C60 2.23858 62.2386 0 65 0C67.7614 0 70 2.23858 70 5C70 7.76142 67.7614 10 65 10C62.2386 10 60 7.76142 60 5Z" fill="black"/>
<path d="M77 5.00003C77 2.23861 79.2386 3.05176e-05 82 3.05176e-05C84.7614 3.05176e-05 87 2.23861 87 5.00003C87 7.76145 84.7614 10 82 10C79.2386 10 77 7.76145 77 5.00003Z" fill="black"/>
<path d="M93.5 5.00003C93.5 2.23861 95.7386 3.05176e-05 98.5 3.05176e-05C101.261 3.05176e-05 103.5 2.23861 103.5 5.00003C103.5 7.76145 101.261 10 98.5 10C95.7386 10 93.5 7.76145 93.5 5.00003Z" fill="black"/>
<path d="M111.5 5C111.5 2.23858 113.739 0 116.5 0C119.261 0 121.5 2.23858 121.5 5C121.5 7.76142 119.261 10 116.5 10C113.739 10 111.5 7.76142 111.5 5Z" fill="black"/>
<path d="M129.5 5C129.5 2.23858 131.739 0 134.5 0C137.261 0 139.5 2.23858 139.5 5C139.5 7.76142 137.261 10 134.5 10C131.739 10 129.5 7.76142 129.5 5Z" fill="black"/>
<path d="M145 5C145 2.23858 147.239 0 150 0C152.761 0 155 2.23858 155 5C155 7.76142 152.761 10 150 10C147.239 10 145 7.76142 145 5Z" fill="black"/>
<rect x="15" width="10" height="10" rx="5" fill="black"/>
<rect y="15" width="10" height="10" rx="5" fill="black"/>
<rect x="30" y="15" width="10" height="10" rx="5" fill="black"/>
<path d="M45 20C45 17.2386 47.2386 15 50 15V15C52.7614 15 55 17.2386 55 20V20C55 22.7614 52.7614 25 50 25V25C47.2386 25 45 22.7614 45 20V20Z" fill="black"/>
<path d="M60 20C60 17.2386 62.2386 15 65 15C67.7614 15 70 17.2386 70 20C70 22.7614 67.7614 25 65 25C62.2386 25 60 22.7614 60 20Z" fill="black"/>
<path d="M77 20C77 17.2386 79.2386 15 82 15C84.7614 15 87 17.2386 87 20C87 22.7615 84.7614 25 82 25C79.2386 25 77 22.7615 77 20Z" fill="black"/>
<path d="M93.5 20C93.5 17.2386 95.7386 15 98.5 15C101.261 15 103.5 17.2386 103.5 20C103.5 22.7615 101.261 25 98.5 25C95.7386 25 93.5 22.7615 93.5 20Z" fill="black"/>
<path d="M111.5 20C111.5 17.2386 113.739 15 116.5 15C119.261 15 121.5 17.2386 121.5 20C121.5 22.7614 119.261 25 116.5 25C113.739 25 111.5 22.7614 111.5 20Z" fill="black"/>
<path d="M129.5 20C129.5 17.2386 131.739 15 134.5 15C137.261 15 139.5 17.2386 139.5 20C139.5 22.7614 137.261 25 134.5 25C131.739 25 129.5 22.7614 129.5 20Z" fill="black"/>
<path d="M145 20C145 17.2386 147.239 15 150 15C152.761 15 155 17.2386 155 20C155 22.7614 152.761 25 150 25C147.239 25 145 22.7614 145 20Z" fill="black"/>
<rect x="15" y="15" width="10" height="10" rx="5" fill="black"/>
<rect y="30" width="10" height="10" rx="5" fill="black"/>
<rect x="30" y="30" width="10" height="10" rx="5" fill="black"/>
<path d="M45 35C45 32.2386 47.2386 30 50 30V30C52.7614 30 55 32.2386 55 35V35C55 37.7614 52.7614 40 50 40V40C47.2386 40 45 37.7614 45 35V35Z" fill="black"/>
<path d="M60 35C60 32.2386 62.2386 30 65 30C67.7614 30 70 32.2386 70 35C70 37.7614 67.7614 40 65 40C62.2386 40 60 37.7614 60 35Z" fill="black"/>
<path d="M77 35C77 32.2386 79.2386 30 82 30C84.7614 30 87 32.2386 87 35C87 37.7615 84.7614 40 82 40C79.2386 40 77 37.7615 77 35Z" fill="black"/>
<path d="M93.5 35C93.5 32.2386 95.7386 30 98.5 30C101.261 30 103.5 32.2386 103.5 35C103.5 37.7615 101.261 40 98.5 40C95.7386 40 93.5 37.7615 93.5 35Z" fill="black"/>
<path d="M111.5 35C111.5 32.2386 113.739 30 116.5 30C119.261 30 121.5 32.2386 121.5 35C121.5 37.7614 119.261 40 116.5 40C113.739 40 111.5 37.7614 111.5 35Z" fill="black"/>
<path d="M129.5 35C129.5 32.2386 131.739 30 134.5 30C137.261 30 139.5 32.2386 139.5 35C139.5 37.7614 137.261 40 134.5 40C131.739 40 129.5 37.7614 129.5 35Z" fill="black"/>
<path d="M145 35C145 32.2386 147.239 30 150 30C152.761 30 155 32.2386 155 35C155 37.7614 152.761 40 150 40C147.239 40 145 37.7614 145 35Z" fill="black"/>
<rect x="15" y="30" width="10" height="10" rx="5" fill="black"/>
<rect y="75" width="10" height="10" rx="5" fill="black"/>
<rect x="30" y="75" width="10" height="10" rx="5" fill="black"/>
<path d="M45 80C45 77.2386 47.2386 75 50 75V75C52.7614 75 55 77.2386 55 80V80C55 82.7614 52.7614 85 50 85V85C47.2386 85 45 82.7614 45 80V80Z" fill="black"/>
<path d="M60 80C60 77.2386 62.2386 75 65 75C67.7614 75 70 77.2386 70 80C70 82.7614 67.7614 85 65 85C62.2386 85 60 82.7614 60 80Z" fill="black"/>
<path d="M77 80C77 77.2386 79.2386 75 82 75C84.7614 75 87 77.2386 87 80C87 82.7615 84.7614 85 82 85C79.2386 85 77 82.7615 77 80Z" fill="black"/>
<path d="M93.5 80C93.5 77.2386 95.7386 75 98.5 75C101.261 75 103.5 77.2386 103.5 80C103.5 82.7615 101.261 85 98.5 85C95.7386 85 93.5 82.7615 93.5 80Z" fill="black"/>
<path d="M111.5 80C111.5 77.2386 113.739 75 116.5 75C119.261 75 121.5 77.2386 121.5 80C121.5 82.7614 119.261 85 116.5 85C113.739 85 111.5 82.7614 111.5 80Z" fill="black"/>
<path d="M129.5 80C129.5 77.2386 131.739 75 134.5 75C137.261 75 139.5 77.2386 139.5 80C139.5 82.7614 137.261 85 134.5 85C131.739 85 129.5 82.7614 129.5 80Z" fill="black"/>
<path d="M145 80C145 77.2386 147.239 75 150 75C152.761 75 155 77.2386 155 80C155 82.7614 152.761 85 150 85C147.239 85 145 82.7614 145 80Z" fill="black"/>
<rect x="15" y="75" width="10" height="10" rx="5" fill="black"/>
<rect y="90" width="10" height="10" rx="5" fill="black"/>
<rect x="30" y="90" width="10" height="10" rx="5" fill="black"/>
<path d="M45 95C45 92.2386 47.2386 90 50 90V90C52.7614 90 55 92.2386 55 95V95C55 97.7614 52.7614 100 50 100V100C47.2386 100 45 97.7614 45 95V95Z" fill="black"/>
<path d="M60 95C60 92.2386 62.2386 90 65 90C67.7614 90 70 92.2386 70 95C70 97.7614 67.7614 100 65 100C62.2386 100 60 97.7614 60 95Z" fill="black"/>
<path d="M77 95C77 92.2386 79.2386 90 82 90C84.7614 90 87 92.2386 87 95C87 97.7615 84.7614 100 82 100C79.2386 100 77 97.7615 77 95Z" fill="black"/>
<path d="M93.5 95C93.5 92.2386 95.7386 90 98.5 90C101.261 90 103.5 92.2386 103.5 95C103.5 97.7615 101.261 100 98.5 100C95.7386 100 93.5 97.7615 93.5 95Z" fill="black"/>
<path d="M111.5 95C111.5 92.2386 113.739 90 116.5 90C119.261 90 121.5 92.2386 121.5 95C121.5 97.7614 119.261 100 116.5 100C113.739 100 111.5 97.7614 111.5 95Z" fill="black"/>
<path d="M129.5 95C129.5 92.2386 131.739 90 134.5 90C137.261 90 139.5 92.2386 139.5 95C139.5 97.7614 137.261 100 134.5 100C131.739 100 129.5 97.7614 129.5 95Z" fill="black"/>
<path d="M145 95C145 92.2386 147.239 90 150 90C152.761 90 155 92.2386 155 95C155 97.7614 152.761 100 150 100C147.239 100 145 97.7614 145 95Z" fill="black"/>
<rect x="15" y="90" width="10" height="10" rx="5" fill="black"/>
<rect y="105" width="10" height="10" rx="5" fill="black"/>
<rect x="30" y="105" width="10" height="10" rx="5" fill="black"/>
<path d="M45 110C45 107.239 47.2386 105 50 105V105C52.7614 105 55 107.239 55 110V110C55 112.761 52.7614 115 50 115V115C47.2386 115 45 112.761 45 110V110Z" fill="black"/>
<path d="M60 110C60 107.239 62.2386 105 65 105C67.7614 105 70 107.239 70 110C70 112.761 67.7614 115 65 115C62.2386 115 60 112.761 60 110Z" fill="black"/>
<path d="M77 110C77 107.239 79.2386 105 82 105C84.7614 105 87 107.239 87 110C87 112.761 84.7614 115 82 115C79.2386 115 77 112.761 77 110Z" fill="black"/>
<path d="M93.5 110C93.5 107.239 95.7386 105 98.5 105C101.261 105 103.5 107.239 103.5 110C103.5 112.761 101.261 115 98.5 115C95.7386 115 93.5 112.761 93.5 110Z" fill="black"/>
<path d="M111.5 110C111.5 107.239 113.739 105 116.5 105C119.261 105 121.5 107.239 121.5 110C121.5 112.761 119.261 115 116.5 115C113.739 115 111.5 112.761 111.5 110Z" fill="black"/>
<path d="M129.5 110C129.5 107.239 131.739 105 134.5 105C137.261 105 139.5 107.239 139.5 110C139.5 112.761 137.261 115 134.5 115C131.739 115 129.5 112.761 129.5 110Z" fill="black"/>
<path d="M145 110C145 107.239 147.239 105 150 105C152.761 105 155 107.239 155 110C155 112.761 152.761 115 150 115C147.239 115 145 112.761 145 110Z" fill="black"/>
<rect x="15" y="105" width="10" height="10" rx="5" fill="black"/>
<rect y="120" width="10" height="10" rx="5" fill="black"/>
<rect x="30" y="120" width="10" height="10" rx="5" fill="black"/>
<path d="M45 125C45 122.239 47.2386 120 50 120V120C52.7614 120 55 122.239 55 125V125C55 127.761 52.7614 130 50 130V130C47.2386 130 45 127.761 45 125V125Z" fill="black"/>
<path d="M60 125C60 122.239 62.2386 120 65 120C67.7614 120 70 122.239 70 125C70 127.761 67.7614 130 65 130C62.2386 130 60 127.761 60 125Z" fill="black"/>
<path d="M77 125C77 122.239 79.2386 120 82 120C84.7614 120 87 122.239 87 125C87 127.761 84.7614 130 82 130C79.2386 130 77 127.761 77 125Z" fill="black"/>
<path d="M93.5 125C93.5 122.239 95.7386 120 98.5 120C101.261 120 103.5 122.239 103.5 125C103.5 127.761 101.261 130 98.5 130C95.7386 130 93.5 127.761 93.5 125Z" fill="black"/>
<path d="M111.5 125C111.5 122.239 113.739 120 116.5 120C119.261 120 121.5 122.239 121.5 125C121.5 127.761 119.261 130 116.5 130C113.739 130 111.5 127.761 111.5 125Z" fill="black"/>
<path d="M129.5 125C129.5 122.239 131.739 120 134.5 120C137.261 120 139.5 122.239 139.5 125C139.5 127.761 137.261 130 134.5 130C131.739 130 129.5 127.761 129.5 125Z" fill="black"/>
<path d="M145 125C145 122.239 147.239 120 150 120C152.761 120 155 122.239 155 125C155 127.761 152.761 130 150 130C147.239 130 145 127.761 145 125Z" fill="black"/>
<rect x="15" y="120" width="10" height="10" rx="5" fill="black"/>
<rect y="135" width="10" height="10" rx="5" fill="black"/>
<rect x="30" y="135" width="10" height="10" rx="5" fill="black"/>
<path d="M45 140C45 137.239 47.2386 135 50 135V135C52.7614 135 55 137.239 55 140V140C55 142.761 52.7614 145 50 145V145C47.2386 145 45 142.761 45 140V140Z" fill="black"/>
<path d="M60 140C60 137.239 62.2386 135 65 135C67.7614 135 70 137.239 70 140C70 142.761 67.7614 145 65 145C62.2386 145 60 142.761 60 140Z" fill="black"/>
<path d="M77 140C77 137.239 79.2386 135 82 135C84.7614 135 87 137.239 87 140C87 142.761 84.7614 145 82 145C79.2386 145 77 142.761 77 140Z" fill="black"/>
<path d="M93.5 140C93.5 137.239 95.7386 135 98.5 135C101.261 135 103.5 137.239 103.5 140C103.5 142.761 101.261 145 98.5 145C95.7386 145 93.5 142.761 93.5 140Z" fill="black"/>
<path d="M111.5 140C111.5 137.239 113.739 135 116.5 135C119.261 135 121.5 137.239 121.5 140C121.5 142.761 119.261 145 116.5 145C113.739 145 111.5 142.761 111.5 140Z" fill="black"/>
<path d="M129.5 140C129.5 137.239 131.739 135 134.5 135C137.261 135 139.5 137.239 139.5 140C139.5 142.761 137.261 145 134.5 145C131.739 145 129.5 142.761 129.5 140Z" fill="black"/>
<path d="M145 140C145 137.239 147.239 135 150 135C152.761 135 155 137.239 155 140C155 142.761 152.761 145 150 145C147.239 145 145 142.761 145 140Z" fill="black"/>
<rect x="15" y="135" width="10" height="10" rx="5" fill="black"/>
<rect y="45" width="10" height="10" rx="5" fill="black"/>
<rect x="30" y="45" width="10" height="10" rx="5" fill="black"/>
<path d="M45 50C45 47.2386 47.2386 45 50 45V45C52.7614 45 55 47.2386 55 50V50C55 52.7614 52.7614 55 50 55V55C47.2386 55 45 52.7614 45 50V50Z" fill="black"/>
<path d="M60 50C60 47.2386 62.2386 45 65 45C67.7614 45 70 47.2386 70 50C70 52.7614 67.7614 55 65 55C62.2386 55 60 52.7614 60 50Z" fill="black"/>
<path d="M77 50C77 47.2386 79.2386 45 82 45C84.7614 45 87 47.2386 87 50C87 52.7615 84.7614 55 82 55C79.2386 55 77 52.7615 77 50Z" fill="black"/>
<path d="M93.5 50C93.5 47.2386 95.7386 45 98.5 45C101.261 45 103.5 47.2386 103.5 50C103.5 52.7615 101.261 55 98.5 55C95.7386 55 93.5 52.7615 93.5 50Z" fill="black"/>
<path d="M111.5 50C111.5 47.2386 113.739 45 116.5 45C119.261 45 121.5 47.2386 121.5 50C121.5 52.7614 119.261 55 116.5 55C113.739 55 111.5 52.7614 111.5 50Z" fill="black"/>
<path d="M129.5 50C129.5 47.2386 131.739 45 134.5 45C137.261 45 139.5 47.2386 139.5 50C139.5 52.7614 137.261 55 134.5 55C131.739 55 129.5 52.7614 129.5 50Z" fill="black"/>
<path d="M145 50C145 47.2386 147.239 45 150 45C152.761 45 155 47.2386 155 50C155 52.7614 152.761 55 150 55C147.239 55 145 52.7614 145 50Z" fill="black"/>
<rect x="15" y="45" width="10" height="10" rx="5" fill="black"/>
</svg>
